<?xml version="1.0" standalone="no"?>
<!DOCTYPE svg PUBLIC "-//W3C//DTD SVG 20010904//EN"
 "http://www.w3.org/TR/2001/REC-SVG-20010904/DTD/svg10.dtd">
<svg version="1.0" xmlns="http://www.w3.org/2000/svg"
 width="256.000000pt" height="256.000000pt" viewBox="0 0 256.000000 256.000000"
 preserveAspectRatio="xMidYMid meet">

<g transform="translate(0.000000,256.000000) scale(0.100000,-0.100000)"
fill="#d93b0f" stroke="none">
<path d="M245 2435 c-50 -18 -100 -71 -114 -122 -15 -54 -15 -2013 0 -2068 14
-51 73 -110 124 -124 56 -15 1984 -15 2040 0 22 6 56 28 76 48 20 20 42 54 48
76 15 56 15 2014 0 2070 -14 51 -73 110 -124 124 -28 8 -336 11 -1025 11 -823
-1 -992 -3 -1025 -15z m202 -997 c16 -15 23 -33 23 -60 0 -38 0 -38 -40 -38
-39 0 -40 1 -40 35 0 19 -4 35 -10 35 -6 0 -10 -37 -10 -90 0 -53 4 -90 10
-90 6 0 10 16 10 35 0 34 1 35 40 35 39 0 40 -1 40 -35 0 -52 -36 -85 -91 -85
-30 0 -50 6 -66 22 -21 20 -23 30 -23 119 0 93 1 98 26 118 36 29 100 28 131
-1z m893 -118 l0 -139 -72 0 c-40 1 -79 5 -85 11 -9 7 -13 41 -13 103 0 104 9
120 60 113 27 -4 30 -2 30 24 0 26 3 28 40 28 l40 0 0 -140z m289 123 c12 -10
24 -35 28 -55 l6 -38 -42 0 c-37 0 -41 2 -41 24 0 14 -4 28 -10 31 -6 4 -10
-27 -10 -84 0 -60 4 -91 11 -91 8 0 9 15 5 45 l-7 45 45 0 46 0 0 -69 0 -70
-70 0 c-101 0 -110 10 -110 136 0 86 3 99 22 120 27 29 95 32 127 6z m-899
-73 c0 -29 -4 -39 -20 -43 -18 -5 -20 -14 -20 -76 l0 -71 -40 0 -40 0 0 115 0
115 60 -1 60 -2 0 -37z m270 22 c13 -11 23 -33 27 -60 l6 -42 -47 0 -46 0 1
-37 c2 -31 3 -33 6 -10 4 24 8 27 44 27 46 0 52 -21 18 -64 -17 -21 -29 -26
-65 -26 -68 0 -84 22 -84 115 0 62 4 79 20 95 25 25 89 27 120 2z m930 0 c13
-11 23 -33 27 -60 l6 -42 -47 0 -46 0 1 -37 c2 -31 3 -33 6 -10 4 24 8 27 44
27 46 0 52 -21 18 -64 -17 -21 -29 -26 -65 -26 -68 0 -84 22 -84 115 0 62 4
79 20 95 25 25 89 27 120 2z m330 -2 c6 -10 10 -62 10 -114 l0 -96 -40 0 -40
0 -2 98 -2 97 -3 -97 -4 -98 -39 0 -40 0 0 115 0 114 75 0 c63 0 77 -4 85 -19z"/>
<path d="M1246 1354 c-9 -24 -7 -107 4 -124 7 -10 10 9 10 63 0 78 -3 90 -14
61z"/>
<path d="M942 1350 c0 -14 2 -19 5 -12 2 6 2 18 0 25 -3 6 -5 1 -5 -13z"/>
<path d="M1872 1350 c0 -14 2 -19 5 -12 2 6 2 18 0 25 -3 6 -5 1 -5 -13z"/>
</g>
</svg>
